<svg xmlns="http://www.w3.org/2000/svg" viewBox="0 0 32 32" fill="none">
  <rect width="32" height="32" rx="8" fill="#0A0A0B"/>
  <path d="M4 22c0-1 0.5-2 1.5-2.5L8 18.5c1-0.5 2-1.5 3-2.5l3-3c1-1 2.5-1.5 4-1.5h6c2.5 0 4.5 1 5 3v0c0.3 1 0.3 2-0.2 3L28 20c-0.5 1-1.5 2-3 2H6c-1.1 0-2-0.9-2-2v2z" fill="#F97316"/>
  <path d="M11 13l3-3c1-1 2.5-1.5 4-1.5h6c2.5 0 4.5 1 5 3c0.3 1 0.1 2-0.3 3H11z" fill="#F97316" opacity="0.8"/>
  <path d="M14 10.5h4" stroke="white" stroke-width="0.8" stroke-linecap="round"/>
  <path d="M13.5 12h5" stroke="white" stroke-width="0.8" stroke-linecap="round"/>
  <path d="M12.5 13.5h5" stroke="white" stroke-width="0.8" stroke-linecap="round"/>
  <path d="M8 19c3-2 6-3 10-3.5c3-0.3 6 0 9 1" stroke="white" stroke-width="1.2" stroke-linecap="round" fill="none" opacity="0.6"/>
  <line x1="7" y1="21.5" x2="9" y2="21.5" stroke="#0A0A0B" stroke-width="0.8" stroke-linecap="round"/>
  <line x1="10" y1="21.5" x2="12" y2="21.5" stroke="#0A0A0B" stroke-width="0.8" stroke-linecap="round"/>
  <line x1="13" y1="21.5" x2="15" y2="21.5" stroke="#0A0A0B" stroke-width="0.8" stroke-linecap="round"/>
  <line x1="16" y1="21.5" x2="18" y2="21.5" stroke="#0A0A0B" stroke-width="0.8" stroke-linecap="round"/>
  <line x1="19" y1="21.5" x2="21" y2="21.5" stroke="#0A0A0B" stroke-width="0.8" stroke-linecap="round"/>
  <line x1="22" y1="21.5" x2="24" y2="21.5" stroke="#0A0A0B" stroke-width="0.8" stroke-linecap="round"/>
  <line x1="25" y1="21.5" x2="27" y2="21.5" stroke="#0A0A0B" stroke-width="0.8" stroke-linecap="round"/>
</svg>
