<svg xmlns="http://www.w3.org/2000/svg" viewBox="0 0 32 32" fill="none">
  <rect width="32" height="32" rx="8" fill="#0A0A0B"/>
  <!-- Shoe body -->
  <path d="M5 21.5c0-0.8 0.4-1.5 1-1.8l2.5-1.2c0.8-0.4 1.5-1 2.2-1.8l2-2.2c0.8-0.9 2-1.5 3.3-1.5h7c2 0 3.5 0.8 4.2 2.3l0.5 1.2c0.3 0.7 0.2 1.5-0.1 2.2l-0.4 0.8c-0.4 0.8-1.2 1.3-2.2 1.5H7c-1.1 0-2-0.7-2-1.5z" fill="#F97316"/>
  <!-- Shoe upper / collar -->
  <path d="M13 14.5l1.5-2c0.7-0.8 1.8-1.3 3-1.3h5.5c1.8 0 3.3 0.7 4 2l0.7 1.5c0.2 0.5 0.1 1-0.2 1.3H13z" fill="#EA580C"/>
  <!-- Tongue -->
  <path d="M17 11.2l-1 1.5c-0.3 0.4-0.2 0.8 0.2 1h3c0.4 0 0.6-0.3 0.5-0.7l-0.8-1.8c-0.2-0.4-0.6-0.5-1-0.3l-0.9 0.3z" fill="#FB923C"/>
  <!-- Laces -->
  <path d="M16.5 11.8l2.5 0.5" stroke="white" stroke-width="0.6" stroke-linecap="round"/>
  <path d="M16 12.8l3 0.5" stroke="white" stroke-width="0.6" stroke-linecap="round"/>
  <path d="M15.3 13.8l3.5 0.3" stroke="white" stroke-width="0.6" stroke-linecap="round"/>
  <!-- Swoosh -->
  <path d="M7.5 20c2.5-2 5.5-3.2 9-3.5c3-0.3 6.5 0.2 10 1.5" stroke="white" stroke-width="1.5" stroke-linecap="round" fill="none" opacity="0.9"/>
  <!-- Midsole -->
  <path d="M5.5 21.5h22c0.5 0 0.8 0.3 0.8 0.6v0.4c0 0.3-0.3 0.5-0.8 0.5H5.5c-0.4 0-0.7-0.2-0.7-0.5v-0.4c0-0.3 0.3-0.6 0.7-0.6z" fill="#FB923C" opacity="0.7"/>
  <!-- Outsole treads -->
  <rect x="6" y="22.8" width="2.5" height="1" rx="0.3" fill="#0A0A0B" opacity="0.5"/>
  <rect x="9.5" y="22.8" width="2.5" height="1" rx="0.3" fill="#0A0A0B" opacity="0.5"/>
  <rect x="13" y="22.8" width="2.5" height="1" rx="0.3" fill="#0A0A0B" opacity="0.5"/>
  <rect x="16.5" y="22.8" width="2.5" height="1" rx="0.3" fill="#0A0A0B" opacity="0.5"/>
  <rect x="20" y="22.8" width="2.5" height="1" rx="0.3" fill="#0A0A0B" opacity="0.5"/>
  <rect x="23.5" y="22.8" width="2.5" height="1" rx="0.3" fill="#0A0A0B" opacity="0.5"/>
  <!-- Heel accent -->
  <path d="M24 15.5c0.8 0.3 1.5 0.8 1.8 1.5l0.5 1c0.2 0.5 0.1 1-0.2 1.3l-0.5 0.5" stroke="#FDBA74" stroke-width="0.8" stroke-linecap="round" fill="none"/>
</svg>
